<?xml version="1.0" standalone="no"?><!DOCTYPE svg PUBLIC "-//W3C//DTD SVG 1.1//EN" "http://www.w3.org/Graphics/SVG/1.1/DTD/svg11.dtd"><svg t="1713188027829" class="icon" viewBox="0 0 1024 1024" version="1.1" xmlns="http://www.w3.org/2000/svg" p-id="8534" xmlns:xlink="http://www.w3.org/1999/xlink" width="128" height="128"><path d="M691.982 597.772l-98.42-73.81c-14.915-11.18-35.7-11.18-50.616 0l-86.642 64.969-115.515-92.409c-14.484-11.592-34.523-12.471-49.93-2.1L174.5 572.662V258.875h618.75V568.25c0 15.53 12.595 28.125 28.125 28.125S849.5 583.78 849.5 568.25V256.51c0-29.715-24.17-53.885-53.886-53.885H172.136c-29.716 0-53.886 24.17-53.886 53.886v510.978c0 29.716 24.17 53.886 53.886 53.886h424.239c15.53 0 28.125-12.595 28.125-28.125s-12.595-28.125-28.125-28.125H174.5V640.461l139.184-93.586 141.521 113.203 113.045-84.797 89.982 67.483c12.472 9.378 30.085 6.794 39.375-5.617 9.317-12.427 6.803-30.058-5.625-39.375z" p-id="8535" fill="#ffffff"></path><path d="M568.25 399.5c0 46.53 37.846 84.375 84.375 84.375S737 446.029 737 399.5s-37.846-84.375-84.375-84.375-84.375 37.846-84.375 84.375z m112.5 0c0 15.504-12.621 28.125-28.125 28.125S624.5 415.004 624.5 399.5s12.621-28.125 28.125-28.125 28.125 12.621 28.125 28.125zM877.625 737h-56.25v-56.25c0-15.53-12.595-28.125-28.125-28.125s-28.125 12.595-28.125 28.125V737h-56.25c-15.53 0-28.125 12.595-28.125 28.125s12.595 28.125 28.125 28.125h56.25v56.25c0 15.53 12.595 28.125 28.125 28.125s28.125-12.595 28.125-28.125v-56.25h56.25c15.53 0 28.125-12.595 28.125-28.125S893.155 737 877.625 737z" p-id="8536" fill="#ffffff"></path></svg>