<?xml version="1.0" standalone="no"?><!DOCTYPE svg PUBLIC "-//W3C//DTD SVG 1.1//EN" "http://www.w3.org/Graphics/SVG/1.1/DTD/svg11.dtd"><svg t="1713188490249" class="icon" viewBox="0 0 1092 1024" version="1.1" xmlns="http://www.w3.org/2000/svg" p-id="12200" xmlns:xlink="http://www.w3.org/1999/xlink" width="136.5" height="128"><path d="M1086.805333 559.786667a290.816 290.816 0 0 0-107.861333-173.397334 277.162667 277.162667 0 0 0-170.666667-58.026666H169.984l224.597333-229.376a59.392 59.392 0 0 0 0-81.92 56.661333 56.661333 0 0 0-80.554666 0L33.450667 303.786667a118.101333 118.101333 0 0 0 0 164.522666l280.576 286.72a56.661333 56.661333 0 0 0 80.554666 0 59.392 59.392 0 0 0 0-81.92L169.984 443.733333h638.293333a172.714667 172.714667 0 0 1 170.666667 174.08V1024H1092.266667V617.813333a333.824 333.824 0 0 0-5.461334-58.026666z" p-id="12201" fill="#ffffff"></path></svg>