<?xml version="1.0" standalone="no"?><!DOCTYPE svg PUBLIC "-//W3C//DTD SVG 1.1//EN" "http://www.w3.org/Graphics/SVG/1.1/DTD/svg11.dtd"><svg t="1713172012040" class="icon" viewBox="0 0 1228 1024" version="1.1" xmlns="http://www.w3.org/2000/svg" p-id="12095" xmlns:xlink="http://www.w3.org/1999/xlink" width="153.5" height="128"><path d="M966.144 204.8H262.656A59.392 59.392 0 0 0 204.8 258.56v504.832A59.392 59.392 0 0 0 262.656 819.2h703.488A59.392 59.392 0 0 0 1024 763.392V258.56A59.392 59.392 0 0 0 966.144 204.8zM256 763.392V260.096A12.288 12.288 0 0 1 262.656 256h703.488a24.064 24.064 0 0 1 6.656 3.584v307.2l-123.904-173.568a26.624 26.624 0 0 0-21.504-10.752 25.6 25.6 0 0 0-20.992 11.776l-99.84 156.672-70.656-95.232a23.552 23.552 0 0 0-21.504-10.24 25.6 25.6 0 0 0-20.48 12.288L409.6 768H262.656a24.064 24.064 0 0 1-6.656-4.608z m710.144 4.608h-496.64l148.48-250.368 70.144 94.72a24.576 24.576 0 0 0 21.504 10.24 25.6 25.6 0 0 0 20.48-11.776l99.328-153.6 143.872 204.8v104.96a12.288 12.288 0 0 1-7.168 1.024z" fill="#012777" p-id="12096"></path><path d="M414.72 518.144a95.232 95.232 0 1 0-95.232-95.232 95.232 95.232 0 0 0 95.232 95.232z m0-138.752a44.032 44.032 0 1 1-44.032 44.032 44.032 44.032 0 0 1 44.032-44.032zM230.4 153.6a25.6 25.6 0 0 0 25.6-25.6v-102.4a25.6 25.6 0 0 0-51.2 0v102.4a25.6 25.6 0 0 0 25.6 25.6zM128 204.8h-102.4a25.6 25.6 0 0 0 0 51.2h102.4a25.6 25.6 0 0 0 0-51.2zM1100.8 256h102.4a25.6 25.6 0 0 0 0-51.2h-102.4a25.6 25.6 0 0 0 0 51.2zM128 768h-102.4a25.6 25.6 0 0 0 0 51.2h102.4a25.6 25.6 0 0 0 0-51.2zM1203.2 768h-102.4a25.6 25.6 0 1 0 0 51.2h102.4a25.6 25.6 0 0 0 0-51.2zM998.4 0a25.6 25.6 0 0 0-25.6 25.6v102.4a25.6 25.6 0 0 0 51.2 0v-102.4a25.6 25.6 0 0 0-25.6-25.6zM230.4 870.4a25.6 25.6 0 0 0-25.6 25.6v102.4a25.6 25.6 0 0 0 51.2 0v-102.4a25.6 25.6 0 0 0-25.6-25.6zM998.4 870.4a25.6 25.6 0 0 0-25.6 25.6v102.4a25.6 25.6 0 1 0 51.2 0v-102.4a25.6 25.6 0 0 0-25.6-25.6z" fill="#012777" p-id="12097"></path></svg>