<?xml version="1.0" standalone="no"?><!DOCTYPE svg PUBLIC "-//W3C//DTD SVG 1.1//EN" "http://www.w3.org/Graphics/SVG/1.1/DTD/svg11.dtd"><svg t="1713166583444" class="icon" viewBox="0 0 1024 1024" version="1.1" xmlns="http://www.w3.org/2000/svg" p-id="4485" xmlns:xlink="http://www.w3.org/1999/xlink" width="64" height="64"><path d="M507.488865 42.648216a31.273514 31.273514 0 0 0-62.547027 0v30.332541H101.292973a58.949189 58.949189 0 0 0-58.949189 58.949189v755.462919a58.949189 58.949189 0 0 0 58.949189 58.949189h343.648865v28.838054a31.273514 31.273514 0 0 0 62.547027 0V679.520865a255.723243 255.723243 0 0 1 208.370162-107.187892c40.212757 0 78.294486 9.271351 112.169514 25.821405 20.895135 10.212324 48.792216-4.206703 48.792216-27.481946a26.568649 26.568649 0 0 0-13.837838-23.662702 316.111568 316.111568 0 0 0-147.123892-36.089081 316.249946 316.249946 0 0 0-208.397838 77.962378V42.620541zM404.230919 767.446486a176.847568 176.847568 0 0 0-289.847351 115.795028h61.993513a115.462919 115.462919 0 0 1 224.809514-12.398703c0.553514 4.151351 1.190054 8.302703 1.909621 12.398703h41.845622v0.553513H104.890811V135.527784h340.051027V662.832432a315.475027 315.475027 0 0 0-40.710919 104.614054zM692.224 75.001081h-93.405405a31.135135 31.135135 0 1 0 0 62.27027h93.405405a31.135135 31.135135 0 1 0 0-62.27027z m217.945946 0h-93.405405a31.135135 31.135135 0 1 0 0 62.27027h93.405405a31.135135 31.135135 0 1 0 0-62.27027z m-311.351351 809.513514h93.405405a31.135135 31.135135 0 0 1 0 62.27027h-93.405405a31.135135 31.135135 0 1 1 0-62.27027z m311.351351 0h-93.405405a31.135135 31.135135 0 0 0 0 62.27027h93.405405a31.135135 31.135135 0 1 0 0-62.27027z m-22.002162-675.84a31.135135 31.135135 0 0 1 53.137297 22.002162v93.405405a31.135135 31.135135 0 1 1-62.27027 0V230.704432c0-8.247351 3.293405-16.162595 9.132973-22.002162z m22.002162 457.894054a31.135135 31.135135 0 0 0-31.135135 31.135135v93.405405a31.135135 31.135135 0 1 0 62.27027 0v-93.405405a31.135135 31.135135 0 0 0-31.135135-31.135135z m-22.002162-224.394379a31.135135 31.135135 0 0 1 53.137297 22.029838v93.405406a31.135135 31.135135 0 1 1-62.27027 0v-93.405406c0-8.247351 3.293405-16.19027 9.132973-22.029838zM340.825946 388.843243a57.067243 57.067243 0 1 0-114.106811 0 57.067243 57.067243 0 0 0 114.106811 0z m62.547027 0a119.61427 119.61427 0 1 1-239.200865 0 119.61427 119.61427 0 0 1 239.200865 0z" p-id="4486" fill="#DD75A1"></path></svg>