<?xml version="1.0" standalone="no"?><!DOCTYPE svg PUBLIC "-//W3C//DTD SVG 1.1//EN" "http://www.w3.org/Graphics/SVG/1.1/DTD/svg11.dtd"><svg t="1713168515554" class="icon" viewBox="0 0 1024 1024" version="1.1" xmlns="http://www.w3.org/2000/svg" p-id="7399" xmlns:xlink="http://www.w3.org/1999/xlink" width="128" height="128"><path d="M832.014221 896.009481H191.985779v-127.990519l192.00474-319.99526 262.996815 319.99526 184.988964-127.99052z m0-415.978668a96.021332 96.021332 0 1 1-96.021332-96.021332 96.021332 96.021332 0 0 1 96.021332 96.021332z m85.820014-250.937264a991.196504 991.196504 0 0 0-186.88512-186.88512A159.277091 159.277091 0 0 0 640.009481 0H143.975113A80.093623 80.093623 0 0 0 63.99526 80.017776v864.002371A80.093623 80.093623 0 0 0 143.975113 1023.924154h736.011851a80.093623 80.093623 0 0 0 79.979853-79.979854V319.99526a159.466706 159.466706 0 0 0-42.208429-91.015481z m-132.465448-54.457596a872.231687 872.231687 0 0 1 72.584846 81.383009h-153.967854v-153.967855a869.463299 869.463299 0 0 1 81.383008 72.584846z m110.621732 769.384194a16.231094 16.231094 0 0 1-16.003555 16.003555H143.975113a16.231094 16.231094 0 0 1-16.003555-16.003555V80.017776a16.231094 16.231094 0 0 1 16.003555-16.003555h496.034368v224.011851a32.007111 32.007111 0 0 0 32.00711 32.007111h224.011851v624.024887z" fill="#012777" p-id="7400"></path></svg>