<?xml version="1.0" standalone="no"?><!DOCTYPE svg PUBLIC "-//W3C//DTD SVG 1.1//EN" "http://www.w3.org/Graphics/SVG/1.1/DTD/svg11.dtd"><svg t="1713168101499" class="icon" viewBox="0 0 1024 1024" version="1.1" xmlns="http://www.w3.org/2000/svg" p-id="5006" xmlns:xlink="http://www.w3.org/1999/xlink" width="128" height="128"><path d="M972.8 836.267h-34.133V153.6c0-18.842-15.292-34.133-34.134-34.133H153.6V34.133C153.6 15.292 138.308 0 119.467 0S85.333 15.292 85.333 34.133v85.334H51.2c-18.842 0-34.133 15.291-34.133 34.133s15.291 34.133 34.133 34.133h34.133V870.4c0 18.842 15.292 34.133 34.134 34.133H870.4v85.334c0 18.841 15.292 34.133 34.133 34.133s34.134-15.292 34.134-34.133v-85.334H972.8c18.842 0 34.133-15.291 34.133-34.133s-15.291-34.133-34.133-34.133z m-819.2 0V187.733h716.8v648.534H153.6z" p-id="5007" fill="#A2D8EA"></path><path d="M273.067 358.4a4 4 0 1 0 136.533 0 4 4 0 1 0-136.533 0z m545.126 367.906L716.851 455.595c-2.526-6.725-8.294-11.145-15.599-11.93-7.287-0.785-13.892 2.321-17.869 8.346L568.747 627.029c-5.223 7.953-15.531 10.752-24.2 6.554l-196.353-95.386c-8.653-4.198-18.978-1.416-24.183 6.537l-116.6 177.988c-3.806 5.82-4.045 12.647-0.648 18.705s9.438 9.506 16.503 9.506H800.58c6.332 0 11.742-2.747 15.377-7.833 3.618-5.086 4.404-10.991 2.236-16.794z" p-id="5008" fill="#A2D8EA"></path></svg>