<?xml version="1.0" standalone="no"?><!DOCTYPE svg PUBLIC "-//W3C//DTD SVG 1.1//EN" "http://www.w3.org/Graphics/SVG/1.1/DTD/svg11.dtd"><svg t="1712651108415" class="icon" viewBox="0 0 1026 1024" version="1.1" xmlns="http://www.w3.org/2000/svg" p-id="5227" data-spm-anchor-id="a313x.search_index.0.i0.12803a8139nvfe" xmlns:xlink="http://www.w3.org/1999/xlink" width="64.125" height="64"><path d="M1025.024 640l0 128-128 0 0 192.512-128 0 0-192.512-513.024 0q-26.624 0-45.056-18.432t-18.432-45.056l0-448.512-192.512 0 0-128 192.512 0 0-128 128 0 0 128 512 0q26.624 0 45.568 18.432t18.944 45.056l0 448.512 128 0zM769.024 256l-448.512 0 0 384 448.512 0 0-384zM704.512 576.512l-319.488 0 0-257.024 319.488 0 0 257.024z" p-id="5228" fill="#96c24e"></path></svg>