<?xml version="1.0" standalone="no"?><!DOCTYPE svg PUBLIC "-//W3C//DTD SVG 1.1//EN" "http://www.w3.org/Graphics/SVG/1.1/DTD/svg11.dtd"><svg t="1713188246662" class="icon" viewBox="0 0 1113 1024" version="1.1" xmlns="http://www.w3.org/2000/svg" p-id="9654" xmlns:xlink="http://www.w3.org/1999/xlink" width="139.125" height="128"><path d="M500.714503 926.711163H99.324967a17.919176 17.919176 0 0 1-18.431152-18.431152V96.797339a17.919176 17.919176 0 0 1 18.431152-18.431152h781.788038a17.919176 17.919176 0 0 1 18.943128 18.431152v283.122977a40.446139 40.446139 0 0 0 39.934164 39.934163 40.958116 40.958116 0 0 0 40.446139-39.934163V96.797339A96.251572 96.251572 0 0 0 883.672887 0.03379H99.324967A96.763549 96.763549 0 0 0 0.001536 96.797339v814.042554a96.251572 96.251572 0 0 0 96.763549 96.763549h401.389536a40.958116 40.958116 0 0 0 39.934163-40.446139 38.91021 38.91021 0 0 0-37.374281-40.44614z" fill="#ffffff" p-id="9655"></path><path d="M474.091728 545.800685L372.720391 460.812595l-150.0091 197.622909a28.670681 28.670681 0 0 1-26.110799 11.775458 27.646728 27.646728 0 0 1-17.919175-45.565904l153.592934-200.694768a51.197645 51.197645 0 0 1 34.302423-19.455105 51.197645 51.197645 0 0 1 37.37428 11.263482l102.39529 83.964138L614.373275 314.899307a51.197645 51.197645 0 0 1 45.053927-15.87127 51.197645 51.197645 0 0 1 37.886258 28.670681l47.613809 78.332397a27.646728 27.646728 0 0 1-51.197644 23.03894L652.259532 358.417305l-109.050984 182.263616a51.197645 51.197645 0 0 1-69.11682 5.119764zM367.08865 336.402317A83.452161 83.452161 0 1 1 450.540811 252.950156a82.940185 82.940185 0 0 1-83.452161 83.452161z m0-55.805432a27.646728 27.646728 0 1 0 0-55.293457 27.646728 27.646728 0 0 0 0 55.293457zM1032.146057 554.504285a274.419377 274.419377 0 0 0-194.039074-81.404256 265.715777 265.715777 0 0 0-194.039074 81.404256A274.419377 274.419377 0 0 0 563.17563 748.543359a269.811589 269.811589 0 0 0 81.404255 194.039074A274.419377 274.419377 0 0 0 838.106983 1023.986689a265.715777 265.715777 0 0 0 194.039074-81.404256 271.859494 271.859494 0 0 0 0-388.078148z m27.646729 196.598956a221.685802 221.685802 0 1 1-221.685803-221.685802 221.685802 221.685802 0 0 1 221.685803 221.685802z" fill="#ffffff" p-id="9656"></path><path d="M959.445402 733.184066a22.014987 22.014987 0 0 0 22.014987-22.014988 22.014987 22.014987 0 0 0-22.014987-22.014987h-236.021143a22.014987 22.014987 0 0 0-22.014988 22.014987 22.014987 22.014987 0 0 0 22.014988 22.014988z" fill="#ffffff" p-id="9657"></path><path d="M706.017059 697.857691a21.503011 21.503011 0 0 0 4.095812 30.718586 22.014987 22.014987 0 0 0 30.718587-3.583835l56.829386-72.700655a22.014987 22.014987 0 0 0-14.335341-35.326375 21.503011 21.503011 0 0 0-19.967081 8.703599l-57.341363 72.18868zM716.768565 763.902652a22.014987 22.014987 0 0 0-22.014988 22.014988 22.014987 22.014987 0 0 0 22.014988 22.014987h236.021143a22.014987 22.014987 0 0 0 22.014987-22.014987 22.014987 22.014987 0 0 0-22.014987-22.014988z" fill="#ffffff" p-id="9658"></path><path d="M972.756789 799.229027a22.014987 22.014987 0 0 0-3.583835-30.718586 22.526964 22.526964 0 0 0-31.230563 3.583835l-59.389268 72.700655a22.014987 22.014987 0 0 0 14.33534 35.326375 23.03894 23.03894 0 0 0 20.479058-8.703599L972.756789 799.229027z" fill="#ffffff" p-id="9659"></path></svg>