<?xml version="1.0" standalone="no"?><!DOCTYPE svg PUBLIC "-//W3C//DTD SVG 1.1//EN" "http://www.w3.org/Graphics/SVG/1.1/DTD/svg11.dtd"><svg t="1712650585614" class="icon" viewBox="0 0 1024 1024" version="1.1" xmlns="http://www.w3.org/2000/svg" p-id="19335" xmlns:xlink="http://www.w3.org/1999/xlink" width="64" height="64"><path d="M926.464 828.928h48.7936v48.7936h-48.7936zM926.464 780.1856h48.7936v48.7424h-48.7936z" fill="#012777" p-id="19336"></path><path d="M926.464 731.4432h48.7936v48.7424h-48.7936zM926.464 682.6496h48.7936v48.7936h-48.7936zM926.464 633.9072h48.7936v48.7424h-48.7936zM926.464 585.1648h48.7936v48.7424h-48.7936zM926.464 536.3712h48.7936v48.7936h-48.7936zM926.464 487.6288h48.7936v48.7424h-48.7936zM926.464 438.8352h48.7936v48.7936h-48.7936zM926.464 390.0928h48.7936v48.7424h-48.7936zM926.464 341.3504h48.7936v48.7424h-48.7936zM926.464 292.5568h48.7936v48.7936h-48.7936zM926.464 243.8144h48.7936v48.7424h-48.7936z" fill="#012777" p-id="19337"></path><path d="M926.464 195.072h48.7936v48.7424h-48.7936zM926.464 146.2784h48.7936v48.7936h-48.7936zM877.7216 877.7216h48.7424v48.7424h-48.7424z" fill="#012777" p-id="19338"></path><path d="M877.7216 828.928h48.7424v48.7936h-48.7424zM877.7216 780.1856h48.7424v48.7424h-48.7424z" fill="#DEE6FC" p-id="19339"></path><path d="M877.7216 731.4432h48.7424v48.7424h-48.7424zM877.7216 682.6496h48.7424v48.7936h-48.7424zM877.7216 633.9072h48.7424v48.7424h-48.7424z" fill="#DEE6FC" p-id="19340"></path><path d="M877.7216 585.1648h48.7424v48.7424h-48.7424z" fill="#012777" p-id="19341"></path><path d="M877.7216 536.3712h48.7424v48.7936h-48.7424zM877.7216 487.6288h48.7424v48.7424h-48.7424zM877.7216 438.8352h48.7424v48.7936h-48.7424zM877.7216 390.0928h48.7424v48.7424h-48.7424zM877.7216 341.3504h48.7424v48.7424h-48.7424zM877.7216 292.5568h48.7424v48.7936h-48.7424zM877.7216 243.8144h48.7424v48.7424h-48.7424z" fill="#DEE6FC" p-id="19342"></path><path d="M877.7216 195.072h48.7424v48.7424h-48.7424zM877.7216 146.2784h48.7424v48.7936h-48.7424z" fill="#DEE6FC" p-id="19343"></path><path d="M877.7216 97.536h48.7424v48.7424h-48.7424zM828.928 926.464h48.7936v48.7936h-48.7936z" fill="#012777" p-id="19344"></path><path d="M828.928 877.7216h48.7936v48.7424h-48.7936z" fill="#DEE6FC" p-id="19345"></path><path d="M828.928 828.928h48.7936v48.7936h-48.7936zM828.928 780.1856h48.7936v48.7424h-48.7936z" fill="#DD75A1" p-id="19346"></path><path d="M828.928 731.4432h48.7936v48.7424h-48.7936z" fill="#012777" p-id="19347"></path><path d="M828.928 682.6496h48.7936v48.7936h-48.7936zM828.928 633.9072h48.7936v48.7424h-48.7936z" fill="#DD75A1" p-id="19348"></path><path d="M828.928 585.1648h48.7936v48.7424h-48.7936z" fill="#DEE6FC" p-id="19349"></path><path d="M828.928 536.3712h48.7936v48.7936h-48.7936z" fill="#012777" p-id="19350"></path><path d="M828.928 487.6288h48.7936v48.7424h-48.7936z" fill="#DEE6FC" p-id="19351"></path><path d="M828.928 438.8352h48.7936v48.7936h-48.7936zM828.928 390.0928h48.7936v48.7424h-48.7936zM828.928 341.3504h48.7936v48.7424h-48.7936zM828.928 292.5568h48.7936v48.7936h-48.7936zM828.928 243.8144h48.7936v48.7424h-48.7936z" fill="#DD75A1" p-id="19352"></path><path d="M828.928 195.072h48.7936v48.7424h-48.7936zM828.928 146.2784h48.7936v48.7936h-48.7936z" fill="#DD75A1" p-id="19353"></path><path d="M828.928 97.536h48.7936v48.7424h-48.7936z" fill="#DEE6FC" p-id="19354"></path><path d="M828.928 48.7424h48.7936v48.7936h-48.7936zM780.1856 926.464h48.7424v48.7936h-48.7424z" fill="#012777" p-id="19355"></path><path d="M780.1856 877.7216h48.7424v48.7424h-48.7424z" fill="#DEE6FC" p-id="19356"></path><path d="M780.1856 828.928h48.7424v48.7936h-48.7424z" fill="#DD75A1" p-id="19357"></path><path d="M780.1856 780.1856h48.7424v48.7424h-48.7424z" fill="#012777" p-id="19358"></path><path d="M780.1856 731.4432h48.7424v48.7424h-48.7424z" fill="#375AA4" p-id="19359"></path><path d="M780.1856 682.6496h48.7424v48.7936h-48.7424z" fill="#012777" p-id="19360"></path><path d="M780.1856 633.9072h48.7424v48.7424h-48.7424zM780.1856 585.1648h48.7424v48.7424h-48.7424z" fill="#DD75A1" p-id="19361"></path><path d="M780.1856 536.3712h48.7424v48.7936h-48.7424z" fill="#DEE6FC" p-id="19362"></path><path d="M780.1856 487.6288h48.7424v48.7424h-48.7424z" fill="#012777" p-id="19363"></path><path d="M780.1856 438.8352h48.7424v48.7936h-48.7424z" fill="#DEE6FC" p-id="19364"></path><path d="M780.1856 390.0928h48.7424v48.7424h-48.7424zM780.1856 341.3504h48.7424v48.7424h-48.7424zM780.1856 292.5568h48.7424v48.7936h-48.7424zM780.1856 243.8144h48.7424v48.7424h-48.7424z" fill="#DD75A1" p-id="19365"></path><path d="M780.1856 195.072h48.7424v48.7424h-48.7424zM780.1856 146.2784h48.7424v48.7936h-48.7424z" fill="#DD75A1" p-id="19366"></path><path d="M780.1856 97.536h48.7424v48.7424h-48.7424z" fill="#DEE6FC" p-id="19367"></path><path d="M780.1856 48.7424h48.7424v48.7936h-48.7424zM731.4432 926.464h48.7424v48.7936h-48.7424z" fill="#012777" p-id="19368"></path><path d="M731.4432 877.7216h48.7424v48.7424h-48.7424z" fill="#DEE6FC" p-id="19369"></path><path d="M731.4432 828.928h48.7424v48.7936h-48.7424z" fill="#012777" p-id="19370"></path><path d="M731.4432 780.1856h48.7424v48.7424h-48.7424z" fill="#375AA4" p-id="19371"></path><path d="M731.4432 731.4432h48.7424v48.7424h-48.7424z" fill="#375AA4" p-id="19372"></path><path d="M731.4432 682.6496h48.7424v48.7936h-48.7424z" fill="#A2D8EA" p-id="19373"></path><path d="M731.4432 633.9072h48.7424v48.7424h-48.7424z" fill="#012777" p-id="19374"></path><path d="M731.4432 585.1648h48.7424v48.7424h-48.7424zM731.4432 536.3712h48.7424v48.7936h-48.7424z" fill="#DD75A1" p-id="19375"></path><path d="M731.4432 487.6288h48.7424v48.7424h-48.7424z" fill="#DEE6FC" p-id="19376"></path><path d="M731.4432 438.8352h48.7424v48.7936h-48.7424z" fill="#012777" p-id="19377"></path><path d="M731.4432 390.0928h48.7424v48.7424h-48.7424z" fill="#DEE6FC" p-id="19378"></path><path d="M731.4432 341.3504h48.7424v48.7424h-48.7424zM731.4432 292.5568h48.7424v48.7936h-48.7424zM731.4432 243.8144h48.7424v48.7424h-48.7424z" fill="#DD75A1" p-id="19379"></path><path d="M731.4432 195.072h48.7424v48.7424h-48.7424zM731.4432 146.2784h48.7424v48.7936h-48.7424z" fill="#DD75A1" p-id="19380"></path><path d="M731.4432 97.536h48.7424v48.7424h-48.7424z" fill="#DEE6FC" p-id="19381"></path><path d="M731.4432 48.7424h48.7424v48.7936h-48.7424zM682.6496 926.464h48.7936v48.7936h-48.7936z" fill="#012777" p-id="19382"></path><path d="M682.6496 877.7216h48.7936v48.7424h-48.7936z" fill="#DEE6FC" p-id="19383"></path><path d="M682.6496 828.928h48.7936v48.7936h-48.7936z" fill="#012777" p-id="19384"></path><path d="M682.6496 780.1856h48.7936v48.7424h-48.7936z" fill="#375AA4" p-id="19385"></path><path d="M682.6496 731.4432h48.7936v48.7424h-48.7936zM682.6496 682.6496h48.7936v48.7936h-48.7936z" fill="#A2D8EA" p-id="19386"></path><path d="M682.6496 633.9072h48.7936v48.7424h-48.7936z" fill="#012777" p-id="19387"></path><path d="M682.6496 585.1648h48.7936v48.7424h-48.7936zM682.6496 536.3712h48.7936v48.7936h-48.7936z" fill="#DD75A1" p-id="19388"></path><path d="M682.6496 487.6288h48.7936v48.7424h-48.7936z" fill="#DEE6FC" p-id="19389"></path><path d="M682.6496 438.8352h48.7936v48.7936h-48.7936z" fill="#012777" p-id="19390"></path><path d="M682.6496 390.0928h48.7936v48.7424h-48.7936z" fill="#DEE6FC" p-id="19391"></path><path d="M682.6496 341.3504h48.7936v48.7424h-48.7936zM682.6496 292.5568h48.7936v48.7936h-48.7936zM682.6496 243.8144h48.7936v48.7424h-48.7936z" fill="#DD75A1" p-id="19392"></path><path d="M682.6496 195.072h48.7936v48.7424h-48.7936zM682.6496 146.2784h48.7936v48.7936h-48.7936z" fill="#DD75A1" p-id="19393"></path><path d="M682.6496 97.536h48.7936v48.7424h-48.7936z" fill="#DEE6FC" p-id="19394"></path><path d="M682.6496 48.7424h48.7936v48.7936h-48.7936zM633.9072 926.464h48.7424v48.7936h-48.7424z" fill="#012777" p-id="19395"></path><path d="M633.9072 877.7216h48.7424v48.7424h-48.7424z" fill="#DEE6FC" p-id="19396"></path><path d="M633.9072 828.928h48.7424v48.7936h-48.7424z" fill="#DD75A1" p-id="19397"></path><path d="M633.9072 780.1856h48.7424v48.7424h-48.7424z" fill="#012777" p-id="19398"></path><path d="M633.9072 731.4432h48.7424v48.7424h-48.7424z" fill="#A2D8EA" p-id="19399"></path><path d="M633.9072 682.6496h48.7424v48.7936h-48.7424z" fill="#012777" p-id="19400"></path><path d="M633.9072 633.9072h48.7424v48.7424h-48.7424zM633.9072 585.1648h48.7424v48.7424h-48.7424z" fill="#DD75A1" p-id="19401"></path><path d="M633.9072 536.3712h48.7424v48.7936h-48.7424z" fill="#DEE6FC" p-id="19402"></path><path d="M633.9072 487.6288h48.7424v48.7424h-48.7424z" fill="#012777" p-id="19403"></path><path d="M633.9072 438.8352h48.7424v48.7936h-48.7424z" fill="#DEE6FC" p-id="19404"></path><path d="M633.9072 390.0928h48.7424v48.7424h-48.7424zM633.9072 341.3504h48.7424v48.7424h-48.7424zM633.9072 292.5568h48.7424v48.7936h-48.7424zM633.9072 243.8144h48.7424v48.7424h-48.7424z" fill="#DD75A1" p-id="19405"></path><path d="M633.9072 195.072h48.7424v48.7424h-48.7424zM633.9072 146.2784h48.7424v48.7936h-48.7424z" fill="#DD75A1" p-id="19406"></path><path d="M633.9072 97.536h48.7424v48.7424h-48.7424z" fill="#DEE6FC" p-id="19407"></path><path d="M633.9072 48.7424h48.7424v48.7936h-48.7424zM585.1648 926.464h48.7424v48.7936h-48.7424z" fill="#012777" p-id="19408"></path><path d="M585.1648 877.7216h48.7424v48.7424h-48.7424z" fill="#DEE6FC" p-id="19409"></path><path d="M585.1648 828.928h48.7424v48.7936h-48.7424zM585.1648 780.1856h48.7424v48.7424h-48.7424z" fill="#DD75A1" p-id="19410"></path><path d="M585.1648 731.4432h48.7424v48.7424h-48.7424z" fill="#012777" p-id="19411"></path><path d="M585.1648 682.6496h48.7424v48.7936h-48.7424zM585.1648 633.9072h48.7424v48.7424h-48.7424z" fill="#DD75A1" p-id="19412"></path><path d="M585.1648 585.1648h48.7424v48.7424h-48.7424z" fill="#DEE6FC" p-id="19413"></path><path d="M585.1648 536.3712h48.7424v48.7936h-48.7424z" fill="#012777" p-id="19414"></path><path d="M585.1648 487.6288h48.7424v48.7424h-48.7424z" fill="#DEE6FC" p-id="19415"></path><path d="M585.1648 438.8352h48.7424v48.7936h-48.7424zM585.1648 390.0928h48.7424v48.7424h-48.7424zM585.1648 341.3504h48.7424v48.7424h-48.7424zM585.1648 292.5568h48.7424v48.7936h-48.7424zM585.1648 243.8144h48.7424v48.7424h-48.7424z" fill="#DD75A1" p-id="19416"></path><path d="M585.1648 195.072h48.7424v48.7424h-48.7424zM585.1648 146.2784h48.7424v48.7936h-48.7424z" fill="#DD75A1" p-id="19417"></path><path d="M585.1648 97.536h48.7424v48.7424h-48.7424z" fill="#DEE6FC" p-id="19418"></path><path d="M585.1648 48.7424h48.7424v48.7936h-48.7424zM536.3712 926.464h48.7936v48.7936h-48.7936z" fill="#012777" p-id="19419"></path><path d="M536.3712 877.7216h48.7936v48.7424h-48.7936z" fill="#DEE6FC" p-id="19420"></path><path d="M536.3712 828.928h48.7936v48.7936h-48.7936zM536.3712 780.1856h48.7936v48.7424h-48.7936z" fill="#DD75A1" p-id="19421"></path><path d="M536.3712 731.4432h48.7936v48.7424h-48.7936zM536.3712 682.6496h48.7936v48.7936h-48.7936z" fill="#DD75A1" p-id="19422"></path><path d="M536.3712 633.9072h48.7936v48.7424h-48.7936z" fill="#DEE6FC" p-id="19423"></path><path d="M536.3712 585.1648h48.7936v48.7424h-48.7936z" fill="#012777" p-id="19424"></path><path d="M536.3712 536.3712h48.7936v48.7936h-48.7936z" fill="#DEE6FC" p-id="19425"></path><path d="M536.3712 487.6288h48.7936v48.7424h-48.7936zM536.3712 438.8352h48.7936v48.7936h-48.7936zM536.3712 390.0928h48.7936v48.7424h-48.7936zM536.3712 341.3504h48.7936v48.7424h-48.7936zM536.3712 292.5568h48.7936v48.7936h-48.7936zM536.3712 243.8144h48.7936v48.7424h-48.7936z" fill="#DD75A1" p-id="19426"></path><path d="M536.3712 195.072h48.7936v48.7424h-48.7936zM536.3712 146.2784h48.7936v48.7936h-48.7936z" fill="#DD75A1" p-id="19427"></path><path d="M536.3712 97.536h48.7936v48.7424h-48.7936z" fill="#DEE6FC" p-id="19428"></path><path d="M536.3712 48.7424h48.7936v48.7936h-48.7936zM487.6288 926.464h48.7424v48.7936h-48.7424z" fill="#012777" p-id="19429"></path><path d="M487.6288 877.7216h48.7424v48.7424h-48.7424z" fill="#DEE6FC" p-id="19430"></path><path d="M487.6288 828.928h48.7424v48.7936h-48.7424zM487.6288 780.1856h48.7424v48.7424h-48.7424z" fill="#DD75A1" p-id="19431"></path><path d="M487.6288 731.4432h48.7424v48.7424h-48.7424z" fill="#DD75A1" p-id="19432"></path><path d="M487.6288 682.6496h48.7424v48.7936h-48.7424z" fill="#DEE6FC" p-id="19433"></path><path d="M487.6288 633.9072h48.7424v48.7424h-48.7424z" fill="#012777" p-id="19434"></path><path d="M487.6288 585.1648h48.7424v48.7424h-48.7424z" fill="#DEE6FC" p-id="19435"></path><path d="M487.6288 536.3712h48.7424v48.7936h-48.7424zM487.6288 487.6288h48.7424v48.7424h-48.7424zM487.6288 438.8352h48.7424v48.7936h-48.7424zM487.6288 390.0928h48.7424v48.7424h-48.7424z" fill="#DD75A1" p-id="19436"></path><path d="M487.6288 341.3504h48.7424v48.7424h-48.7424zM487.6288 292.5568h48.7424v48.7936h-48.7424zM487.6288 243.8144h48.7424v48.7424h-48.7424z" fill="#012777" p-id="19437"></path><path d="M487.6288 195.072h48.7424v48.7424h-48.7424zM487.6288 146.2784h48.7424v48.7936h-48.7424z" fill="#DD75A1" p-id="19438"></path><path d="M487.6288 97.536h48.7424v48.7424h-48.7424z" fill="#DEE6FC" p-id="19439"></path><path d="M487.6288 48.7424h48.7424v48.7936h-48.7424zM438.8352 926.464h48.7936v48.7936h-48.7936z" fill="#012777" p-id="19440"></path><path d="M438.8352 877.7216h48.7936v48.7424h-48.7936z" fill="#DEE6FC" p-id="19441"></path><path d="M438.8352 828.928h48.7936v48.7936h-48.7936zM438.8352 780.1856h48.7936v48.7424h-48.7936z" fill="#DD75A1" p-id="19442"></path><path d="M438.8352 731.4432h48.7936v48.7424h-48.7936z" fill="#DEE6FC" p-id="19443"></path><path d="M438.8352 682.6496h48.7936v48.7936h-48.7936z" fill="#012777" p-id="19444"></path><path d="M438.8352 633.9072h48.7936v48.7424h-48.7936z" fill="#DEE6FC" p-id="19445"></path><path d="M438.8352 585.1648h48.7936v48.7424h-48.7936zM438.8352 536.3712h48.7936v48.7936h-48.7936zM438.8352 487.6288h48.7936v48.7424h-48.7936zM438.8352 438.8352h48.7936v48.7936h-48.7936z" fill="#DD75A1" p-id="19446"></path><path d="M438.8352 390.0928h48.7936v48.7424h-48.7936z" fill="#012777" p-id="19447"></path><path d="M438.8352 341.3504h48.7936v48.7424h-48.7936zM438.8352 292.5568h48.7936v48.7936h-48.7936zM438.8352 243.8144h48.7936v48.7424h-48.7936z" fill="#375AA4" p-id="19448"></path><path d="M438.8352 195.072h48.7936v48.7424h-48.7936z" fill="#012777" p-id="19449"></path><path d="M438.8352 146.2784h48.7936v48.7936h-48.7936z" fill="#DD75A1" p-id="19450"></path><path d="M438.8352 97.536h48.7936v48.7424h-48.7936z" fill="#DEE6FC" p-id="19451"></path><path d="M438.8352 48.7424h48.7936v48.7936h-48.7936zM390.0928 926.464h48.7424v48.7936h-48.7424z" fill="#012777" p-id="19452"></path><path d="M390.0928 877.7216h48.7424v48.7424h-48.7424z" fill="#DEE6FC" p-id="19453"></path><path d="M390.0928 828.928h48.7424v48.7936h-48.7424zM390.0928 780.1856h48.7424v48.7424h-48.7424z" fill="#DD75A1" p-id="19454"></path><path d="M390.0928 731.4432h48.7424v48.7424h-48.7424z" fill="#DD75A1" p-id="19455"></path><path d="M390.0928 682.6496h48.7424v48.7936h-48.7424z" fill="#DEE6FC" p-id="19456"></path><path d="M390.0928 633.9072h48.7424v48.7424h-48.7424z" fill="#012777" p-id="19457"></path><path d="M390.0928 585.1648h48.7424v48.7424h-48.7424z" fill="#DEE6FC" p-id="19458"></path><path d="M390.0928 536.3712h48.7424v48.7936h-48.7424zM390.0928 487.6288h48.7424v48.7424h-48.7424z" fill="#DD75A1" p-id="19459"></path><path d="M390.0928 438.8352h48.7424v48.7936h-48.7424z" fill="#012777" p-id="19460"></path><path d="M390.0928 390.0928h48.7424v48.7424h-48.7424zM390.0928 341.3504h48.7424v48.7424h-48.7424zM390.0928 292.5568h48.7424v48.7936h-48.7424zM390.0928 243.8144h48.7424v48.7424h-48.7424z" fill="#375AA4" p-id="19461"></path><path d="M390.0928 195.072h48.7424v48.7424h-48.7424z" fill="#A2D8EA" p-id="19462"></path><path d="M390.0928 146.2784h48.7424v48.7936h-48.7424z" fill="#012777" p-id="19463"></path><path d="M390.0928 97.536h48.7424v48.7424h-48.7424z" fill="#DEE6FC" p-id="19464"></path><path d="M390.0928 48.7424h48.7424v48.7936h-48.7424zM341.3504 926.464h48.7424v48.7936h-48.7424z" fill="#012777" p-id="19465"></path><path d="M341.3504 877.7216h48.7424v48.7424h-48.7424z" fill="#DEE6FC" p-id="19466"></path><path d="M341.3504 828.928h48.7424v48.7936h-48.7424zM341.3504 780.1856h48.7424v48.7424h-48.7424z" fill="#DD75A1" p-id="19467"></path><path d="M341.3504 731.4432h48.7424v48.7424h-48.7424zM341.3504 682.6496h48.7424v48.7936h-48.7424z" fill="#DD75A1" p-id="19468"></path><path d="M341.3504 633.9072h48.7424v48.7424h-48.7424z" fill="#DEE6FC" p-id="19469"></path><path d="M341.3504 585.1648h48.7424v48.7424h-48.7424z" fill="#012777" p-id="19470"></path><path d="M341.3504 536.3712h48.7424v48.7936h-48.7424z" fill="#DEE6FC" p-id="19471"></path><path d="M341.3504 487.6288h48.7424v48.7424h-48.7424z" fill="#DD75A1" p-id="19472"></path><path d="M341.3504 438.8352h48.7424v48.7936h-48.7424z" fill="#012777" p-id="19473"></path><path d="M341.3504 390.0928h48.7424v48.7424h-48.7424zM341.3504 341.3504h48.7424v48.7424h-48.7424zM341.3504 292.5568h48.7424v48.7936h-48.7424z" fill="#375AA4" p-id="19474"></path><path d="M341.3504 243.8144h48.7424v48.7424h-48.7424z" fill="#A2D8EA" p-id="19475"></path><path d="M341.3504 195.072h48.7424v48.7424h-48.7424z" fill="#A2D8EA" p-id="19476"></path><path d="M341.3504 146.2784h48.7424v48.7936h-48.7424z" fill="#012777" p-id="19477"></path><path d="M341.3504 97.536h48.7424v48.7424h-48.7424z" fill="#DEE6FC" p-id="19478"></path><path d="M341.3504 48.7424h48.7424v48.7936h-48.7424zM292.5568 926.464h48.7936v48.7936h-48.7936z" fill="#012777" p-id="19479"></path><path d="M292.5568 877.7216h48.7936v48.7424h-48.7936z" fill="#DEE6FC" p-id="19480"></path><path d="M292.5568 828.928h48.7936v48.7936h-48.7936zM292.5568 780.1856h48.7936v48.7424h-48.7936z" fill="#DD75A1" p-id="19481"></path><path d="M292.5568 731.4432h48.7936v48.7424h-48.7936zM292.5568 682.6496h48.7936v48.7936h-48.7936zM292.5568 633.9072h48.7936v48.7424h-48.7936z" fill="#DD75A1" p-id="19482"></path><path d="M292.5568 585.1648h48.7936v48.7424h-48.7936z" fill="#DEE6FC" p-id="19483"></path><path d="M292.5568 536.3712h48.7936v48.7936h-48.7936z" fill="#012777" p-id="19484"></path><path d="M292.5568 487.6288h48.7936v48.7424h-48.7936z" fill="#DEE6FC" p-id="19485"></path><path d="M292.5568 438.8352h48.7936v48.7936h-48.7936z" fill="#012777" p-id="19486"></path><path d="M292.5568 390.0928h48.7936v48.7424h-48.7936zM292.5568 341.3504h48.7936v48.7424h-48.7936z" fill="#375AA4" p-id="19487"></path><path d="M292.5568 292.5568h48.7936v48.7936h-48.7936zM292.5568 243.8144h48.7936v48.7424h-48.7936z" fill="#A2D8EA" p-id="19488"></path><path d="M292.5568 195.072h48.7936v48.7424h-48.7936z" fill="#A2D8EA" p-id="19489"></path><path d="M292.5568 146.2784h48.7936v48.7936h-48.7936z" fill="#012777" p-id="19490"></path><path d="M292.5568 97.536h48.7936v48.7424h-48.7936z" fill="#DEE6FC" p-id="19491"></path><path d="M292.5568 48.7424h48.7936v48.7936h-48.7936zM243.8144 926.464h48.7424v48.7936h-48.7424z" fill="#012777" p-id="19492"></path><path d="M243.8144 877.7216h48.7424v48.7424h-48.7424z" fill="#DEE6FC" p-id="19493"></path><path d="M243.8144 828.928h48.7424v48.7936h-48.7424zM243.8144 780.1856h48.7424v48.7424h-48.7424z" fill="#DD75A1" p-id="19494"></path><path d="M243.8144 731.4432h48.7424v48.7424h-48.7424zM243.8144 682.6496h48.7424v48.7936h-48.7424zM243.8144 633.9072h48.7424v48.7424h-48.7424z" fill="#DD75A1" p-id="19495"></path><path d="M243.8144 585.1648h48.7424v48.7424h-48.7424z" fill="#DEE6FC" p-id="19496"></path><path d="M243.8144 536.3712h48.7424v48.7936h-48.7424z" fill="#012777" p-id="19497"></path><path d="M243.8144 487.6288h48.7424v48.7424h-48.7424z" fill="#DEE6FC" p-id="19498"></path><path d="M243.8144 438.8352h48.7424v48.7936h-48.7424z" fill="#DD75A1" p-id="19499"></path><path d="M243.8144 390.0928h48.7424v48.7424h-48.7424z" fill="#012777" p-id="19500"></path><path d="M243.8144 341.3504h48.7424v48.7424h-48.7424zM243.8144 292.5568h48.7424v48.7936h-48.7424zM243.8144 243.8144h48.7424v48.7424h-48.7424z" fill="#A2D8EA" p-id="19501"></path><path d="M243.8144 195.072h48.7424v48.7424h-48.7424z" fill="#012777" p-id="19502"></path><path d="M243.8144 146.2784h48.7424v48.7936h-48.7424z" fill="#DD75A1" p-id="19503"></path><path d="M243.8144 97.536h48.7424v48.7424h-48.7424z" fill="#DEE6FC" p-id="19504"></path><path d="M243.8144 48.7424h48.7424v48.7936h-48.7424zM195.072 926.464h48.7424v48.7936H195.072z" fill="#012777" p-id="19505"></path><path d="M195.072 877.7216h48.7424v48.7424H195.072z" fill="#DEE6FC" p-id="19506"></path><path d="M195.072 828.928h48.7424v48.7936H195.072zM195.072 780.1856h48.7424v48.7424H195.072z" fill="#DD75A1" p-id="19507"></path><path d="M195.072 731.4432h48.7424v48.7424H195.072zM195.072 682.6496h48.7424v48.7936H195.072z" fill="#DD75A1" p-id="19508"></path><path d="M195.072 633.9072h48.7424v48.7424H195.072z" fill="#DEE6FC" p-id="19509"></path><path d="M195.072 585.1648h48.7424v48.7424H195.072z" fill="#012777" p-id="19510"></path><path d="M195.072 536.3712h48.7424v48.7936H195.072z" fill="#DEE6FC" p-id="19511"></path><path d="M195.072 487.6288h48.7424v48.7424H195.072zM195.072 438.8352h48.7424v48.7936H195.072zM195.072 390.0928h48.7424v48.7424H195.072z" fill="#DD75A1" p-id="19512"></path><path d="M195.072 341.3504h48.7424v48.7424H195.072zM195.072 292.5568h48.7424v48.7936H195.072zM195.072 243.8144h48.7424v48.7424H195.072z" fill="#012777" p-id="19513"></path><path d="M195.072 195.072h48.7424v48.7424H195.072zM195.072 146.2784h48.7424v48.7936H195.072z" fill="#DD75A1" p-id="19514"></path><path d="M195.072 97.536h48.7424v48.7424H195.072z" fill="#DEE6FC" p-id="19515"></path><path d="M195.072 48.7424h48.7424v48.7936H195.072zM146.2784 926.464h48.7936v48.7936h-48.7936z" fill="#012777" p-id="19516"></path><path d="M146.2784 877.7216h48.7936v48.7424h-48.7936z" fill="#DEE6FC" p-id="19517"></path><path d="M146.2784 828.928h48.7936v48.7936h-48.7936zM146.2784 780.1856h48.7936v48.7424h-48.7936z" fill="#DD75A1" p-id="19518"></path><path d="M146.2784 731.4432h48.7936v48.7424h-48.7936z" fill="#DD75A1" p-id="19519"></path><path d="M146.2784 682.6496h48.7936v48.7936h-48.7936z" fill="#DEE6FC" p-id="19520"></path><path d="M146.2784 633.9072h48.7936v48.7424h-48.7936z" fill="#012777" p-id="19521"></path><path d="M146.2784 585.1648h48.7936v48.7424h-48.7936z" fill="#DEE6FC" p-id="19522"></path><path d="M146.2784 536.3712h48.7936v48.7936h-48.7936zM146.2784 487.6288h48.7936v48.7424h-48.7936zM146.2784 438.8352h48.7936v48.7936h-48.7936zM146.2784 390.0928h48.7936v48.7424h-48.7936zM146.2784 341.3504h48.7936v48.7424h-48.7936zM146.2784 292.5568h48.7936v48.7936h-48.7936zM146.2784 243.8144h48.7936v48.7424h-48.7936z" fill="#DD75A1" p-id="19523"></path><path d="M146.2784 195.072h48.7936v48.7424h-48.7936zM146.2784 146.2784h48.7936v48.7936h-48.7936z" fill="#DD75A1" p-id="19524"></path><path d="M146.2784 97.536h48.7936v48.7424h-48.7936z" fill="#DEE6FC" p-id="19525"></path><path d="M146.2784 48.7424h48.7936v48.7936h-48.7936zM97.536 877.7216h48.7424v48.7424h-48.7424z" fill="#012777" p-id="19526"></path><path d="M97.536 828.928h48.7424v48.7936h-48.7424zM97.536 780.1856h48.7424v48.7424h-48.7424z" fill="#DEE6FC" p-id="19527"></path><path d="M97.536 731.4432h48.7424v48.7424h-48.7424z" fill="#DEE6FC" p-id="19528"></path><path d="M97.536 682.6496h48.7424v48.7936h-48.7424z" fill="#012777" p-id="19529"></path><path d="M97.536 633.9072h48.7424v48.7424h-48.7424zM97.536 585.1648h48.7424v48.7424h-48.7424zM97.536 536.3712h48.7424v48.7936h-48.7424zM97.536 487.6288h48.7424v48.7424h-48.7424zM97.536 438.8352h48.7424v48.7936h-48.7424zM97.536 390.0928h48.7424v48.7424h-48.7424zM97.536 341.3504h48.7424v48.7424h-48.7424zM97.536 292.5568h48.7424v48.7936h-48.7424zM97.536 243.8144h48.7424v48.7424h-48.7424z" fill="#DEE6FC" p-id="19530"></path><path d="M97.536 195.072h48.7424v48.7424h-48.7424zM97.536 146.2784h48.7424v48.7936h-48.7424z" fill="#DEE6FC" p-id="19531"></path><path d="M97.536 97.536h48.7424v48.7424h-48.7424zM48.7424 828.928h48.7936v48.7936H48.7424zM48.7424 780.1856h48.7936v48.7424H48.7424z" fill="#012777" p-id="19532"></path><path d="M48.7424 731.4432h48.7936v48.7424H48.7424zM48.7424 682.6496h48.7936v48.7936H48.7424zM48.7424 633.9072h48.7936v48.7424H48.7424zM48.7424 585.1648h48.7936v48.7424H48.7424zM48.7424 536.3712h48.7936v48.7936H48.7424zM48.7424 487.6288h48.7936v48.7424H48.7424zM48.7424 438.8352h48.7936v48.7936H48.7424zM48.7424 390.0928h48.7936v48.7424H48.7424zM48.7424 341.3504h48.7936v48.7424H48.7424zM48.7424 292.5568h48.7936v48.7936H48.7424zM48.7424 243.8144h48.7936v48.7424H48.7424z" fill="#012777" p-id="19533"></path><path d="M48.7424 195.072h48.7936v48.7424H48.7424zM48.7424 146.2784h48.7936v48.7936H48.7424z" fill="#012777" p-id="19534"></path></svg>